<svg width="100%" height="100%" viewBox="0 0 200 200" fill="none" xmlns="http://www.w3.org/2000/svg">
<path fill-rule="evenodd" clip-rule="evenodd" d="M25 41.6667C25 37.2464 26.7559 33.0072 29.8816 29.8816C33.0072 26.7559 37.2464 25 41.6667 25C46.0869 25 50.3262 26.7559 53.4518 29.8816C56.5774 33.0072 58.3333 37.2464 58.3333 41.6667C58.3333 46.0869 56.5774 50.3262 53.4518 53.4518C50.3262 56.5774 46.0869 58.3333 41.6667 58.3333C37.2464 58.3333 33.0072 56.5774 29.8816 53.4518C26.7559 50.3262 25 46.0869 25 41.6667ZM83.3333 41.6667C83.3333 37.2464 85.0893 33.0072 88.2149 29.8816C91.3405 26.7559 95.5797 25 100 25C104.42 25 108.66 26.7559 111.785 29.8816C114.911 33.0072 116.667 37.2464 116.667 41.6667C116.667 46.0869 114.911 50.3262 111.785 53.4518C108.66 56.5774 104.42 58.3333 100 58.3333C95.5797 58.3333 91.3405 56.5774 88.2149 53.4518C85.0893 50.3262 83.3333 46.0869 83.3333 41.6667ZM141.667 41.6667C141.667 37.2464 143.423 33.0072 146.548 29.8816C149.674 26.7559 153.913 25 158.333 25C162.754 25 166.993 26.7559 170.118 29.8816C173.244 33.0072 175 37.2464 175 41.6667C175 46.0869 173.244 50.3262 170.118 53.4518C166.993 56.5774 162.754 58.3333 158.333 58.3333C153.913 58.3333 149.674 56.5774 146.548 53.4518C143.423 50.3262 141.667 46.0869 141.667 41.6667ZM25 100C25 95.5797 26.7559 91.3405 29.8816 88.2149C33.0072 85.0893 37.2464 83.3333 41.6667 83.3333C46.0869 83.3333 50.3262 85.0893 53.4518 88.2149C56.5774 91.3405 58.3333 95.5797 58.3333 100C58.3333 104.42 56.5774 108.66 53.4518 111.785C50.3262 114.911 46.0869 116.667 41.6667 116.667C37.2464 116.667 33.0072 114.911 29.8816 111.785C26.7559 108.66 25 104.42 25 100ZM83.3333 100C83.3333 95.5797 85.0893 91.3405 88.2149 88.2149C91.3405 85.0893 95.5797 83.3333 100 83.3333C104.42 83.3333 108.66 85.0893 111.785 88.2149C114.911 91.3405 116.667 95.5797 116.667 100C116.667 104.42 114.911 108.66 111.785 111.785C108.66 114.911 104.42 116.667 100 116.667C95.5797 116.667 91.3405 114.911 88.2149 111.785C85.0893 108.66 83.3333 104.42 83.3333 100ZM141.667 100C141.667 95.5797 143.423 91.3405 146.548 88.2149C149.674 85.0893 153.913 83.3333 158.333 83.3333C162.754 83.3333 166.993 85.0893 170.118 88.2149C173.244 91.3405 175 95.5797 175 100C175 104.42 173.244 108.66 170.118 111.785C166.993 114.911 162.754 116.667 158.333 116.667C153.913 116.667 149.674 114.911 146.548 111.785C143.423 108.66 141.667 104.42 141.667 100ZM25 158.333C25 153.913 26.7559 149.674 29.8816 146.548C33.0072 143.423 37.2464 141.667 41.6667 141.667C46.0869 141.667 50.3262 143.423 53.4518 146.548C56.5774 149.674 58.3333 153.913 58.3333 158.333C58.3333 162.754 56.5774 166.993 53.4518 170.118C50.3262 173.244 46.0869 175 41.6667 175C37.2464 175 33.0072 173.244 29.8816 170.118C26.7559 166.993 25 162.754 25 158.333ZM83.3333 158.333C83.3333 153.913 85.0893 149.674 88.2149 146.548C91.3405 143.423 95.5797 141.667 100 141.667C104.42 141.667 108.66 143.423 111.785 146.548C114.911 149.674 116.667 153.913 116.667 158.333C116.667 162.754 114.911 166.993 111.785 170.118C108.66 173.244 104.42 175 100 175C95.5797 175 91.3405 173.244 88.2149 170.118C85.0893 166.993 83.3333 162.754 83.3333 158.333ZM141.667 158.333C141.667 153.913 143.423 149.674 146.548 146.548C149.674 143.423 153.913 141.667 158.333 141.667C162.754 141.667 166.993 143.423 170.118 146.548C173.244 149.674 175 153.913 175 158.333C175 162.754 173.244 166.993 170.118 170.118C166.993 173.244 162.754 175 158.333 175C153.913 175 149.674 173.244 146.548 170.118C143.423 166.993 141.667 162.754 141.667 158.333Z" fill="currentColor"/>
</svg>
