<svg width="100%" height="100%" viewBox="0 0 200 200" fill="none" xmlns="http://www.w3.org/2000/svg">
<path fill-rule="evenodd" clip-rule="evenodd" d="M112.19 91.8509L172.729 31.3115L168.689 27.2709L108.122 87.8371L140.9 8.69914L135.621 6.51251L102.849 85.6354V0H97.1349V85.6354L64.3634 6.51251L59.084 8.69914L91.8509 87.8097L31.3115 27.2709L27.2709 31.3115L87.8097 91.8503L8.69914 59.084L6.51251 64.3634L85.6354 97.1349H0V102.849H85.6354L6.51251 135.621L8.69914 140.9L87.8371 108.122L27.2709 168.689L31.3115 172.729L91.8509 112.19L59.084 191.301L64.3634 193.487L97.1349 114.365V200H102.849V114.365L135.621 193.487L140.9 191.301L108.122 112.163L168.689 172.729L172.729 168.689L112.163 108.122L191.301 140.9L193.487 135.621L114.365 102.849H200V97.1349H114.365L193.487 64.3634L191.301 59.084L112.19 91.8509Z" fill="currentColor"/>
</svg>
