<svg width="100%" height="100%" viewBox="0 0 200 200" fill="none" xmlns="http://www.w3.org/2000/svg">
<path d="M12.5 48.4688C12.9113 48.4712 13.319 48.3924 13.6997 48.2368C14.0804 48.0813 14.4267 47.8522 14.7187 47.5626L47.5625 14.7188C47.8539 14.4274 48.085 14.0815 48.2427 13.7008C48.4004 13.3201 48.4815 12.9121 48.4815 12.5001C48.4815 12.088 48.4004 11.68 48.2427 11.2993C48.085 10.9186 47.8539 10.5727 47.5625 10.2813C47.2711 9.98993 46.9252 9.75881 46.5445 9.60112C46.1638 9.44343 45.7558 9.36227 45.3437 9.36227C44.5116 9.36227 43.7134 9.69285 43.125 10.2813L10.2812 43.1251C9.98834 43.4156 9.75586 43.7612 9.59721 44.142C9.43855 44.5228 9.35687 44.9313 9.35687 45.3438C9.35687 45.7563 9.43855 46.1648 9.59721 46.5456C9.75586 46.9264 9.98834 47.272 10.2812 47.5626C10.5732 47.8522 10.9195 48.0813 11.3003 48.2368C11.681 48.3924 12.0887 48.4712 12.5 48.4688ZM12.5 84.0313C12.9113 84.0337 13.319 83.9549 13.6997 83.7993C14.0804 83.6438 14.4267 83.4147 14.7187 83.1251L83.125 14.7188C83.4164 14.4274 83.6475 14.0815 83.8052 13.7008C83.9629 13.3201 84.044 12.9121 84.044 12.5001C84.044 12.088 83.9629 11.68 83.8052 11.2993C83.6475 10.9186 83.4164 10.5727 83.125 10.2813C82.8336 9.98993 82.4877 9.75881 82.107 9.60112C81.7263 9.44343 81.3183 9.36227 80.9062 9.36227C80.4942 9.36227 80.0862 9.44343 79.7055 9.60112C79.3248 9.75881 78.9789 9.98993 78.6875 10.2813L10.2812 78.6876C9.98834 78.9781 9.75586 79.3237 9.59721 79.7045C9.43855 80.0853 9.35687 80.4938 9.35687 80.9063C9.35687 81.3188 9.43855 81.7273 9.59721 82.1081C9.75586 82.4889 9.98834 82.8345 10.2812 83.1251C10.5732 83.4147 10.9195 83.6438 11.3003 83.7993C11.681 83.9549 12.0887 84.0337 12.5 84.0313ZM12.5 119.531C13.3131 119.57 14.1091 119.29 14.7187 118.75L118.75 14.7188C119.338 14.1304 119.669 13.3322 119.669 12.5001C119.669 11.6679 119.338 10.8698 118.75 10.2813C118.162 9.69285 117.363 9.36227 116.531 9.36227C115.699 9.36227 114.901 9.69285 114.312 10.2813L10.2812 114.188C9.98834 114.478 9.75586 114.824 9.59721 115.205C9.43855 115.585 9.35687 115.994 9.35687 116.406C9.35687 116.819 9.43855 117.227 9.59721 117.608C9.75586 117.989 9.98834 118.335 10.2812 118.625C10.5732 118.915 10.9195 119.144 11.3003 119.299C11.681 119.455 12.0887 119.534 12.5 119.531ZM12.5 155.094C12.9113 155.096 13.319 155.017 13.6997 154.862C14.0804 154.706 14.4267 154.477 14.7187 154.188L154.187 14.7188C154.479 14.4274 154.71 14.0815 154.868 13.7008C155.025 13.3201 155.107 12.9121 155.107 12.5001C155.107 12.088 155.025 11.68 154.868 11.2993C154.71 10.9186 154.479 10.5727 154.187 10.2813C153.896 9.98993 153.55 9.75881 153.17 9.60112C152.789 9.44343 152.381 9.36227 151.969 9.36227C151.557 9.36227 151.149 9.44343 150.768 9.60112C150.387 9.75881 150.041 9.98993 149.75 10.2813L10.2812 149.75C9.98834 150.041 9.75586 150.386 9.59721 150.767C9.43855 151.148 9.35687 151.556 9.35687 151.969C9.35687 152.381 9.43855 152.79 9.59721 153.171C9.75586 153.551 9.98834 153.897 10.2812 154.188C10.5732 154.477 10.9195 154.706 11.3003 154.862C11.681 155.017 12.0887 155.096 12.5 155.094ZM189.719 10.2813C189.428 9.9884 189.083 9.75592 188.702 9.59727C188.321 9.43862 187.913 9.35693 187.5 9.35693C187.087 9.35693 186.679 9.43862 186.298 9.59727C185.917 9.75592 185.572 9.9884 185.281 10.2813L10.2812 185.281C9.98834 185.572 9.75586 185.917 9.59721 186.298C9.43855 186.679 9.35687 187.088 9.35687 187.5C9.35687 187.913 9.43855 188.321 9.59721 188.702C9.75586 189.083 9.98834 189.428 10.2812 189.719C10.5718 190.012 10.9174 190.244 11.2982 190.403C11.679 190.561 12.0875 190.643 12.5 190.643C12.9125 190.643 13.321 190.561 13.7018 190.403C14.0826 190.244 14.4282 190.012 14.7187 189.719L189.719 14.7188C190.012 14.4283 190.244 14.0827 190.403 13.7019C190.561 13.321 190.643 12.9126 190.643 12.5001C190.643 12.0875 190.561 11.6791 190.403 11.2983C190.244 10.9174 190.012 10.5718 189.719 10.2813ZM185.281 45.8126L45.8125 185.281C45.5196 185.572 45.2871 185.917 45.1285 186.298C44.9698 186.679 44.8881 187.088 44.8881 187.5C44.8881 187.913 44.9698 188.321 45.1285 188.702C45.2871 189.083 45.5196 189.428 45.8125 189.719C46.103 190.012 46.4486 190.244 46.8294 190.403C47.2102 190.561 47.6187 190.643 48.0312 190.643C48.4438 190.643 48.8522 190.561 49.233 190.403C49.6139 190.244 49.9595 190.012 50.25 189.719L189.719 50.2501C190.307 49.6616 190.638 48.8635 190.638 48.0313C190.638 47.1991 190.307 46.401 189.719 45.8126C189.13 45.2241 188.332 44.8935 187.5 44.8935C186.668 44.8935 185.87 45.2241 185.281 45.8126ZM185.281 81.2501L81.25 185.281C80.9571 185.572 80.7246 185.917 80.566 186.298C80.4073 186.679 80.3256 187.088 80.3256 187.5C80.3256 187.913 80.4073 188.321 80.566 188.702C80.7246 189.083 80.9571 189.428 81.25 189.719C81.5405 190.012 81.8861 190.244 82.2669 190.403C82.6478 190.561 83.0562 190.643 83.4687 190.643C83.8813 190.643 84.2897 190.561 84.6705 190.403C85.0514 190.244 85.397 190.012 85.6875 189.719L189.719 85.8126C190.324 85.2241 190.67 84.4194 190.682 83.5755C190.694 82.7316 190.37 81.9176 189.781 81.3126C189.193 80.7075 188.388 80.361 187.544 80.3493C186.7 80.3376 185.886 80.6616 185.281 81.2501ZM185.281 116.875L116.875 185.281C116.582 185.572 116.35 185.917 116.191 186.298C116.032 186.679 115.951 187.088 115.951 187.5C115.951 187.913 116.032 188.321 116.191 188.702C116.35 189.083 116.582 189.428 116.875 189.719C117.166 190.012 117.511 190.244 117.892 190.403C118.273 190.561 118.681 190.643 119.094 190.643C119.506 190.643 119.915 190.561 120.296 190.403C120.676 190.244 121.022 190.012 121.312 189.719L189.719 121.313C190.307 120.724 190.638 119.926 190.638 119.094C190.638 118.262 190.307 117.464 189.719 116.875C189.13 116.287 188.332 115.956 187.5 115.956C186.668 115.956 185.87 116.287 185.281 116.875ZM185.281 152.438L152.437 185.281C152.145 185.572 151.912 185.917 151.753 186.298C151.595 186.679 151.513 187.088 151.513 187.5C151.513 187.913 151.595 188.321 151.753 188.702C151.912 189.083 152.145 189.428 152.437 189.719C152.728 190.012 153.074 190.244 153.454 190.403C153.835 190.561 154.244 190.643 154.656 190.643C155.069 190.643 155.477 190.561 155.858 190.403C156.239 190.244 156.584 190.012 156.875 189.719L189.719 156.875C190.307 156.287 190.638 155.489 190.638 154.656C190.638 153.824 190.307 153.026 189.719 152.438C189.13 151.849 188.332 151.519 187.5 151.519C186.668 151.519 185.87 151.849 185.281 152.438Z" fill="currentColor"/>
</svg>
