<svg width="600" height="140" viewBox="0 0 600 140" xmlns="http://www.w3.org/2000/svg"><g id="svgGroup" stroke-linecap="round" fill-rule="evenodd" font-size="9pt" stroke="#000" stroke-width="2mm" fill="#000" style="stroke:#000;stroke-width:2mm;fill:#000"><path d="M 500 140 L 460 140 L 460 0 L 500 0 L 500 80 L 540 80 L 540 60 L 560 60 L 560 40 L 600 40 L 600 60 L 580 60 L 580 80 L 560 80 L 560 100 L 580 100 L 580 120 L 600 120 L 600 140 L 560 140 L 560 120 L 540 120 L 540 100 L 500 100 L 500 140 Z M 440 140 L 320 140 L 320 120 L 300 120 L 300 40 L 340 40 L 340 120 L 400 120 L 400 40 L 440 40 L 440 140 Z M 240 140 L 140 140 L 140 0 L 240 0 L 240 20 L 260 20 L 260 40 L 280 40 L 280 100 L 260 100 L 260 120 L 240 120 L 240 140 Z M 120 140 L 0 140 L 0 120 L 40 120 L 40 60 L 20 60 L 20 40 L 80 40 L 80 120 L 120 120 L 120 140 Z M 180 20 L 180 120 L 220 120 L 220 100 L 240 100 L 240 40 L 220 40 L 220 20 L 180 20 Z M 80 20 L 40 20 L 40 0 L 80 0 L 80 20 Z" vector-effect="non-scaling-stroke"/></g></svg>