
<svg width='100%' height='100%' id="_레이어_2" data-name="레이어 2" xmlns="http://www.w3.org/2000/svg" viewBox="0 0 181.75 34.23">
  <defs>
    <style>
      .cls-1 {
        fill: #004898;
      }

      .cls-2 {
        fill: #004294;
      }

      .cls-3 {
        fill: #005bac;
      }

      .cls-4 {
        fill: #0067b6;
      }

      .cls-5 {
        fill: #00286c;
      }

      .cls-6 {
        fill: #0095d6;
      }

      .cls-7 {
        fill: #008ccf;
      }

      .cls-8 {
        fill: #007ac6;
      }

      .cls-9 {
        fill: #fff;
      }

      .cls-10 {
        fill: #08287f;
      }
    </style>
  </defs>
  <g id="_레이어_1-2" data-name="레이어 1">
    <g>
      <rect class="cls-7" width="34.23" height="34.23"/>
      <polygon class="cls-7" points="0 0 8.55 8.56 17.11 0 0 0"/>
      <polygon class="cls-6" points="0 0 0 17.11 8.55 8.56 0 0"/>
      <polygon class="cls-7" points="17.11 17.11 8.56 8.55 0 17.11 17.11 17.11"/>
      <polygon class="cls-8" points="17.11 17.11 17.11 0 8.56 8.55 17.11 17.11"/>
      <polygon class="cls-4" points="17.11 0 17.11 17.11 25.67 8.56 17.11 0"/>
      <polygon class="cls-2" points="34.23 17.11 25.67 8.55 17.12 17.11 34.23 17.11"/>
      <polygon class="cls-8" points="0 17.11 8.55 25.67 17.11 17.11 0 17.11"/>
      <polygon class="cls-4" points="0 17.11 0 34.23 8.55 25.67 0 17.11"/>
      <polygon class="cls-3" points="17.11 34.23 8.56 25.67 0 34.23 17.11 34.23"/>
      <polygon class="cls-1" points="17.11 34.23 17.11 17.12 8.56 25.67 17.11 34.23"/>
      <polygon class="cls-10" points="17.11 17.11 25.67 25.67 34.23 17.11 17.11 17.11"/>
      <polygon class="cls-2" points="17.11 17.11 17.11 34.23 25.67 25.67 17.11 17.11"/>
      <polygon class="cls-10" points="34.23 34.23 25.67 25.67 17.12 34.23 34.23 34.23"/>
      <polygon class="cls-10" points="34.23 34.23 34.23 17.12 25.67 25.67 34.23 34.23"/>
      <polygon class="cls-3" points="17.11 0 25.67 8.56 34.23 0 17.11 0"/>
      <polygon class="cls-1" points="34.23 17.11 34.23 0 25.67 8.55 34.23 17.11"/>
      <polygon class="cls-9" points="34.23 21.4 23.27 10.96 6.64 27.63 12.71 33.7 23.27 23.29 34.23 34.19 34.23 21.4"/>
      <path class="cls-5" d="m166.88,27.24c0-1.98,1.89-3.6,4.26-3.61,2.37,0,4.26,1.63,4.26,3.61,0,1.97-1.9,3.6-4.26,3.61-2.37,0-4.26-1.63-4.26-3.61m-4.66,0c0,3.88,4.01,6.98,8.92,6.99,4.91,0,8.92-3.11,8.93-6.99,0-3.88-4.02-6.98-8.93-6.99-4.91,0-8.92,3.11-8.92,6.99m-6.57-13.18c0-1.68,1.61-3.06,3.63-3.06s3.62,1.39,3.62,3.06c0,1.68-1.61,3.06-3.62,3.06-2.02,0-3.62-1.39-3.63-3.06m-4.02,0c0,3.33,3.44,5.98,7.64,5.98,4.2,0,7.64-2.65,7.64-5.98,0-3.33-3.44-5.98-7.64-5.99-4.2,0-7.64,2.66-7.64,5.99m-31.1,8.13v7.84c.09,1.54,1.34,2.78,2.88,2.84h20.92s0-3,0-3h-18.61c-.12,0-.16-.06-.21-.16-.03-.08-.04-.18-.04-.22h0v-7.29h-4.94Zm-62.71,5.04c0-1.96,1.88-3.58,4.23-3.58s4.22,1.62,4.23,3.58c0,1.96-1.88,3.57-4.23,3.57-2.35,0-4.22-1.62-4.23-3.57m-4.62,0c0,3.85,3.98,6.92,8.85,6.93,4.87,0,8.84-3.08,8.85-6.93,0-3.85-3.98-6.92-8.85-6.93-4.87,0-8.84,3.08-8.85,6.93m4.47-12.96h4.88V2.83h-17.44s1.08,2.99,1.08,2.99h11.48v8.45Zm-13.93,4.56h21.51v-2.99h-11.26v-5.66h-4.88v5.66h-6.45l1.08,2.99Zm33.53-7.63s.53-.54,0-1.07l-2.39-2.39s-.53-.53-1.07,0l-2.05,2.05V2.13s-4.88,0-4.88,0c0,0,0,17.65,0,17.65h4.88v-8.25s2.05,2.05,2.05,2.05c0,0,.53.53,1.07,0l2.39-2.39Zm30.77,5.67l1.24-2.49-.14-.03s-2.24-.53-4.73-1.86c-2.46-1.31-5.15-3.41-6.2-6.52h9.59v-2.99h-24.08l1.08,2.99h8.56c-1.05,3.11-3.74,5.21-6.2,6.52-2.5,1.33-4.73,1.86-4.73,1.86l-.14.03,1.24,2.49h.08c6.72-.45,11.22-5.37,12.18-6.51.97,1.15,5.46,6.06,12.18,6.51h.07Zm-9.8,6.23h13.91v-3.24h-32.77l1.08,3.24h12.82v10.06h4.97v-10.06Zm37.83-14.91c0,1.88-1.81,3.44-4.07,3.44s-4.07-1.55-4.07-3.44c0-1.88,1.81-3.44,4.07-3.44,2.26,0,4.06,1.56,4.07,3.44m4.47,0c0-3.71-3.84-6.68-8.54-6.68-4.69,0-8.53,2.97-8.54,6.68,0,3.71,3.84,6.68,8.54,6.68,4.69,0,8.53-2.97,8.54-6.68m-24.35,12.05h31.85v-3.01h-32.94l1.09,3.01Zm34.81-13.22h17.08v-3.01h-6.07V.71s-4.92,0-4.92,0v3.29h-7.27l1.09,3.01h.08Zm30.75-5.39h-4.92v7.45h-2.37V1.62s-4.92,0-4.92,0v17.3s4.92,0,4.92,0v-6.82h2.37v8.39h4.92V1.62Z"/>
    </g>
  </g>
</svg>