
<svg enable-background="new 0 0 288.7 53.2" version="1.1" viewBox="0 0 288.7 53.2" xml:space="preserve" xmlns="http://www.w3.org/2000/svg">

	<path d="m58.2 53.2h4.4l-31.3-53.2-29.1 49.4-2.2 3.8h58.2zm-29.4-16-7.9 3.5 7.9-6.3v2.8zm0-9.2-15.4 12.3 15.4-26.1v13.8zm0 14.7v5.5h-12.5l12.5-5.5zm5 0 12.5 5.5h-12.5v-5.5zm0-5.5v-23.1l18.3 31.2-18.3-8.1z"/>
	
		
			<path d="m90.1 24.6c-0.6-1.4-1.4-2.6-2.5-3.6s-2.3-1.9-3.6-2.5c-1.4-0.6-2.8-0.9-4.4-0.9s-3 0.3-4.4 0.9-2.5 1.4-3.6 2.5c-1 1.1-1.8 2.3-2.4 3.6-0.6 1.4-0.9 2.8-0.9 4.3 0 1.6 0.3 3 0.9 4.4s1.4 2.6 2.4 3.6 2.2 1.8 3.6 2.4 2.8 0.9 4.4 0.9c1.5 0 3-0.3 4.4-0.9s2.6-1.4 3.6-2.4 1.9-2.2 2.5-3.6 0.9-2.8 0.9-4.4c0-1.5-0.3-3-0.9-4.3zm-4.1 7c-0.3 0.8-0.8 1.6-1.4 2.2s-1.3 1.1-2.1 1.5-1.7 0.5-2.6 0.5c-1 0-1.9-0.2-2.7-0.5-0.8-0.4-1.6-0.9-2.2-1.5-0.6-0.7-1.1-1.4-1.5-2.2-0.4-0.9-0.5-1.8-0.5-2.8s0.2-1.9 0.5-2.8 0.8-1.6 1.4-2.3c0.6-0.6 1.3-1.2 2.2-1.5 0.8-0.4 1.7-0.5 2.7-0.5s1.8 0.2 2.7 0.5 1.5 0.9 2.2 1.5c0.6 0.7 1.1 1.4 1.4 2.3s0.5 1.8 0.5 2.8c-0.1 1.1-0.3 2-0.6 2.8z"/>
			<path d="m112.5 21.3c-0.7-1.1-1.6-2-2.9-2.6s-2.8-0.9-4.6-0.9h-6.7v22.1h4.3v-7h3.1c1.4 0 2.7-0.2 3.7-0.7s1.8-1 2.4-1.8c0.6-0.7 1-1.6 1.3-2.5s0.4-1.8 0.4-2.7c0-1.5-0.3-2.8-1-3.9zm-3.5 5.1c-0.1 0.4-0.3 0.8-0.5 1.1s-0.6 0.6-1 0.9c-0.4 0.2-1 0.3-1.6 0.3h-3.1v-6.7h3.1c0.8 0 1.4 0.1 1.8 0.4 0.5 0.3 0.8 0.6 1 1s0.4 0.8 0.4 1.1c0.1 0.4 0.1 0.7 0.1 0.9s-0.1 0.6-0.2 1z"/>
			<polygon points="135.9 35.7 135.9 39.9 120.4 39.9 120.4 17.8 135.5 17.8 135.5 22 124.8 22 124.8 26.7 134.2 26.7 134.2 30.9 124.8 30.9 124.8 35.7"/>
			<polygon points="163.3 17.8 163.3 40.8 163.2 40.8 147.7 26.8 147.8 39.9 143.4 39.9 143.4 16.9 143.6 16.9 159 31.1 158.9 17.8"/>
			<polygon points="176.3 22 176.3 27 184.5 27 184.5 31.2 176.3 31.2 176.3 39.9 172 39.9 172 17.8 185.8 17.8 185.8 22"/>
			<polygon points="207.7 35.7 207.7 39.9 193 39.9 193 17.8 197.3 17.8 197.3 35.7"/>
			<path d="m234.9 24.6c-0.6-1.4-1.4-2.6-2.5-3.6-1-1-2.3-1.9-3.6-2.5-1.4-0.6-2.8-0.9-4.3-0.9-1.6 0-3 0.3-4.4 0.9s-2.5 1.4-3.6 2.5c-1 1.1-1.8 2.3-2.4 3.6s-0.9 2.8-0.9 4.3c0 1.6 0.3 3 0.9 4.4s1.4 2.6 2.4 3.6 2.2 1.8 3.6 2.4 2.8 0.9 4.4 0.9c1.5 0 3-0.3 4.3-0.9 1.4-0.6 2.6-1.4 3.6-2.4s1.9-2.2 2.5-3.6 0.9-2.8 0.9-4.4c0-1.5-0.3-3-0.9-4.3zm-4.1 7c-0.3 0.8-0.8 1.6-1.4 2.2s-1.3 1.1-2.1 1.5-1.7 0.5-2.6 0.5c-1 0-1.9-0.2-2.7-0.5-0.8-0.4-1.6-0.9-2.2-1.5-0.6-0.7-1.1-1.4-1.5-2.2-0.3-0.9-0.5-1.8-0.5-2.8s0.2-1.9 0.5-2.8 0.8-1.6 1.4-2.3c0.6-0.6 1.3-1.2 2.2-1.5s1.7-0.5 2.7-0.5 1.9 0.2 2.7 0.5c0.8 0.4 1.5 0.9 2.1 1.5 0.6 0.7 1.1 1.4 1.4 2.3 0.4 0.9 0.5 1.8 0.5 2.8 0 1.1-0.1 2-0.5 2.8z"/>
			<path d="m263.5 24.6c-0.6-1.4-1.4-2.6-2.5-3.6-1-1-2.3-1.9-3.6-2.5-1.4-0.6-2.8-0.9-4.3-0.9-1.6 0-3 0.3-4.4 0.9s-2.5 1.4-3.6 2.5c-1 1.1-1.8 2.3-2.4 3.6s-0.9 2.8-0.9 4.3c0 1.6 0.3 3 0.9 4.4s1.4 2.6 2.4 3.6 2.2 1.8 3.6 2.4 2.8 0.9 4.4 0.9c1.5 0 3-0.3 4.3-0.9 1.4-0.6 2.6-1.4 3.6-2.4s1.9-2.2 2.5-3.6 0.9-2.8 0.9-4.4c0-1.5-0.3-3-0.9-4.3zm-4.1 7c-0.3 0.8-0.8 1.6-1.4 2.2s-1.3 1.1-2.1 1.5-1.7 0.5-2.6 0.5c-1 0-1.9-0.2-2.7-0.5-0.8-0.4-1.6-0.9-2.2-1.5-0.6-0.7-1.1-1.4-1.5-2.2-0.3-0.9-0.5-1.8-0.5-2.8s0.2-1.9 0.5-2.8 0.8-1.6 1.4-2.3c0.6-0.6 1.3-1.2 2.2-1.5s1.7-0.5 2.7-0.5 1.9 0.2 2.7 0.5c0.8 0.4 1.5 0.9 2.1 1.5 0.6 0.7 1.1 1.4 1.4 2.3 0.4 0.9 0.5 1.8 0.5 2.8 0 1.1-0.2 2-0.5 2.8z"/>
			<path d="m283.6 31.9c0.7-0.4 1.3-0.9 1.8-1.5 0.6-0.7 1.1-1.6 1.3-2.5 0.3-0.9 0.4-1.8 0.4-2.7 0-1.1-0.2-2.2-0.6-3.1s-0.9-1.7-1.7-2.3c-0.7-0.6-1.6-1.1-2.7-1.5-1.1-0.3-2.3-0.5-3.7-0.5h-6.7v22.1h4.4v-7h2.9l4.7 7h5.1l-5.2-8zm-1.2-5.5c-0.1 0.4-0.3 0.7-0.5 1.1-0.2 0.3-0.6 0.6-1 0.8s-1 0.3-1.7 0.3h-3.1v-6.6h3.1c0.8 0 1.4 0.1 1.8 0.4s0.8 0.6 1 1 0.4 0.8 0.4 1.1c0.1 0.4 0.1 0.7 0.1 0.9 0.1 0.3 0 0.7-0.1 1z"/>
		
	

</svg>
