<svg width="100%" height="100%" viewBox="0 0 3152 366" fill="none" xmlns="http://www.w3.org/2000/svg">
<path d="M2815.95 358V8H2984.45C3017.12 8 3045.29 13.3333 3068.95 24C3092.95 34.6667 3111.45 50 3124.45 70C3137.45 89.6667 3143.95 113 3143.95 140C3143.95 167 3137.45 190.333 3124.45 210C3111.45 229.333 3092.95 244.167 3068.95 254.5C3045.29 264.833 3017.12 270 2984.45 270H2881.45L2933.95 221.5V358H2815.95ZM3025.45 358L2939.45 230.5H3064.45L3151.45 358H3025.45ZM2933.95 234.5L2881.45 181H2976.95C2993.29 181 3005.29 177.333 3012.95 170C3020.95 162.667 3024.95 152.667 3024.95 140C3024.95 127.333 3020.95 117.333 3012.95 110C3005.29 102.667 2993.29 99 2976.95 99H2881.45L2933.95 45.5V234.5Z" fill="black"/>
<path d="M2600.62 366C2572.29 366 2545.96 361.5 2521.62 352.5C2497.63 343.5 2476.79 330.833 2459.12 314.5C2441.46 297.833 2427.63 278.333 2417.62 256C2407.96 233.667 2403.12 209.333 2403.12 183C2403.12 156.333 2407.96 132 2417.62 110C2427.63 87.6667 2441.46 68.3333 2459.12 52C2476.79 35.3333 2497.63 22.5 2521.62 13.5C2545.96 4.5 2572.29 0 2600.62 0C2629.29 0 2655.63 4.5 2679.62 13.5C2703.63 22.5 2724.46 35.3333 2742.12 52C2759.79 68.3333 2773.46 87.6667 2783.12 110C2793.13 132 2798.12 156.333 2798.12 183C2798.12 209.333 2793.13 233.667 2783.12 256C2773.46 278.333 2759.79 297.833 2742.12 314.5C2724.46 330.833 2703.63 343.5 2679.62 352.5C2655.63 361.5 2629.29 366 2600.62 366ZM2600.62 270.5C2611.62 270.5 2621.79 268.5 2631.12 264.5C2640.79 260.5 2649.12 254.833 2656.12 247.5C2663.46 239.833 2669.13 230.667 2673.12 220C2677.13 209 2679.12 196.667 2679.12 183C2679.12 169.333 2677.13 157.167 2673.12 146.5C2669.13 135.5 2663.46 126.333 2656.12 119C2649.12 111.333 2640.79 105.5 2631.12 101.5C2621.79 97.5 2611.62 95.5 2600.62 95.5C2589.63 95.5 2579.29 97.5 2569.62 101.5C2560.29 105.5 2551.96 111.333 2544.62 119C2537.63 126.333 2532.12 135.5 2528.12 146.5C2524.13 157.167 2522.12 169.333 2522.12 183C2522.12 196.667 2524.13 209 2528.12 220C2532.12 230.667 2537.63 239.833 2544.62 247.5C2551.96 254.833 2560.29 260.5 2569.62 264.5C2579.29 268.5 2589.63 270.5 2600.62 270.5Z" fill="black"/>
<path d="M2201.8 366C2173.46 366 2147.13 361.5 2122.8 352.5C2098.8 343.5 2077.96 330.833 2060.3 314.5C2042.63 297.833 2028.8 278.333 2018.8 256C2009.13 233.667 2004.3 209.333 2004.3 183C2004.3 156.333 2009.13 132 2018.8 110C2028.8 87.6667 2042.63 68.3333 2060.3 52C2077.96 35.3333 2098.8 22.5 2122.8 13.5C2147.13 4.5 2173.46 0 2201.8 0C2230.46 0 2256.8 4.5 2280.8 13.5C2304.8 22.5 2325.63 35.3333 2343.3 52C2360.96 68.3333 2374.63 87.6667 2384.3 110C2394.3 132 2399.3 156.333 2399.3 183C2399.3 209.333 2394.3 233.667 2384.3 256C2374.63 278.333 2360.96 297.833 2343.3 314.5C2325.63 330.833 2304.8 343.5 2280.8 352.5C2256.8 361.5 2230.46 366 2201.8 366ZM2201.8 270.5C2212.8 270.5 2222.96 268.5 2232.3 264.5C2241.96 260.5 2250.3 254.833 2257.3 247.5C2264.63 239.833 2270.3 230.667 2274.3 220C2278.3 209 2280.3 196.667 2280.3 183C2280.3 169.333 2278.3 157.167 2274.3 146.5C2270.3 135.5 2264.63 126.333 2257.3 119C2250.3 111.333 2241.96 105.5 2232.3 101.5C2222.96 97.5 2212.8 95.5 2201.8 95.5C2190.8 95.5 2180.46 97.5 2170.8 101.5C2161.46 105.5 2153.13 111.333 2145.8 119C2138.8 126.333 2133.3 135.5 2129.3 146.5C2125.3 157.167 2123.3 169.333 2123.3 183C2123.3 196.667 2125.3 209 2129.3 220C2133.3 230.667 2138.8 239.833 2145.8 247.5C2153.13 254.833 2161.46 260.5 2170.8 264.5C2180.46 268.5 2190.8 270.5 2201.8 270.5Z" fill="black"/>
<path d="M1739.59 358V8H1857.59V266.5H2015.59V358H1739.59Z" fill="black"/>
<path d="M1552.81 157H1706.81V246H1552.81V157ZM1560.81 358H1442.81V8H1727.31V97H1560.81V358Z" fill="black"/>
<path d="M1065.95 358V8H1162.95L1340.95 221H1295.95V8H1410.95V358H1313.95L1135.95 145H1180.95V358H1065.95Z" fill="black"/>
<path d="M862.527 138H1018.53V223H862.527V138ZM870.527 269H1045.53V358H754.527V8H1039.03V97H870.527V269Z" fill="black"/>
<path d="M412.828 358V8H581.328C613.995 8 642.161 13.3333 665.828 24C689.828 34.6667 708.328 50 721.328 70C734.328 89.6667 740.828 113 740.828 140C740.828 167 734.328 190.333 721.328 210C708.328 229.667 689.828 245 665.828 256C642.161 266.667 613.995 272 581.328 272H478.328L530.828 221.5V358H412.828ZM530.828 234.5L478.328 181H573.828C590.161 181 602.161 177.333 609.828 170C617.828 162.667 621.828 152.667 621.828 140C621.828 127.333 617.828 117.333 609.828 110C602.161 102.667 590.161 99 573.828 99H478.328L530.828 45.5V234.5Z" fill="black"/>
<path d="M197.5 366C169.167 366 142.833 361.5 118.5 352.5C94.5 343.5 73.6667 330.833 56 314.5C38.3333 297.833 24.5 278.333 14.5 256C4.83333 233.667 0 209.333 0 183C0 156.333 4.83333 132 14.5 110C24.5 87.6667 38.3333 68.3333 56 52C73.6667 35.3333 94.5 22.5 118.5 13.5C142.833 4.5 169.167 0 197.5 0C226.167 0 252.5 4.5 276.5 13.5C300.5 22.5 321.333 35.3333 339 52C356.667 68.3333 370.333 87.6667 380 110C390 132 395 156.333 395 183C395 209.333 390 233.667 380 256C370.333 278.333 356.667 297.833 339 314.5C321.333 330.833 300.5 343.5 276.5 352.5C252.5 361.5 226.167 366 197.5 366ZM197.5 270.5C208.5 270.5 218.667 268.5 228 264.5C237.667 260.5 246 254.833 253 247.5C260.333 239.833 266 230.667 270 220C274 209 276 196.667 276 183C276 169.333 274 157.167 270 146.5C266 135.5 260.333 126.333 253 119C246 111.333 237.667 105.5 228 101.5C218.667 97.5 208.5 95.5 197.5 95.5C186.5 95.5 176.167 97.5 166.5 101.5C157.167 105.5 148.833 111.333 141.5 119C134.5 126.333 129 135.5 125 146.5C121 157.167 119 169.333 119 183C119 196.667 121 209 125 220C129 230.667 134.5 239.833 141.5 247.5C148.833 254.833 157.167 260.5 166.5 264.5C176.167 268.5 186.5 270.5 197.5 270.5Z" fill="black"/>
</svg>
