<svg id="eJNtCIr74z81" xmlns="http://www.w3.org/2000/svg" xmlns:xlink="http://www.w3.org/1999/xlink" viewBox="0 0 16 16"
	shape-rendering="geometricPrecision" text-rendering="geometricPrecision">
	<style>
		<![CDATA[
		#blinkMotion {
			animation: blinkMotion_Anima 2000ms linear infinite normal forwards
		}

		@keyframes blinkMotion_Anima {
			0% {
				transform: translate(7px, 7.5px)
			}

			45% {
				transform: translate(7px, 7.5px)
			}

			50% {
				transform: translate(7px, 8.5px)
			}

			55% {
				transform: translate(7px, 7.5px)
			}

			100% {
				transform: translate(7px, 7.5px)
			}
		}
		]]>
	</style>
	<g>
		<rect width="1" height="1" rx="0" ry="0" transform="translate(6 2)" fill="#f5e9d3" />
		<rect width="1" height="1" rx="0" ry="0" transform="translate(7 2)" fill="#f5e9d3" />
		<rect width="1" height="1" rx="0" ry="0" transform="translate(5 2)" fill="#f5e9d3" />
		<rect width="1" height="1" rx="0" ry="0" transform="translate(4 2)" fill="#f5e9d3" />
		<rect width="1" height="1" rx="0" ry="0" transform="translate(10 3)" fill="#f5e9d3" />
		<rect width="1" height="1" rx="0" ry="0" transform="translate(11 3)" fill="#f5e9d3" />
		<rect width="1" height="1" rx="0" ry="0" transform="translate(9 3)" fill="#f5e9d3" />
		<rect width="1" height="1" rx="0" ry="0" transform="translate(8 3)" fill="#f5e9d3" />
		<rect width="1" height="1" rx="0" ry="0" transform="translate(7 3)" fill="#f5e9d3" />
		<rect width="1" height="1" rx="0" ry="0" transform="translate(6 3)" fill="#f5e9d3" />
		<rect width="1" height="1" rx="0" ry="0" transform="translate(5 3)" fill="#f5e9d3" />
		<rect width="1" height="1" rx="0" ry="0" transform="translate(4 3)" fill="#f5e9d3" />
		<rect width="1" height="1" rx="0" ry="0" transform="translate(3 3)" fill="#f5e9d3" />
		<rect width="1" height="1" rx="0" ry="0" transform="translate(2 3)" fill="#f5e9d3" />
		<rect width="1" height="1" rx="0" ry="0" transform="translate(10 4)" fill="#f5e9d3" />
		<rect width="1" height="1" rx="0" ry="0" transform="translate(9 4)" fill="#f5e9d3" />
		<rect width="1" height="1" rx="0" ry="0" transform="translate(8 4)" fill="#f5e9d3" />
		<rect width="1" height="1" rx="0" ry="0" transform="translate(7 4)" fill="#f5e9d3" />
		<rect width="1" height="1" rx="0" ry="0" transform="translate(6 4)" fill="#f5e9d3" />
		<rect width="1" height="1" rx="0" ry="0" transform="translate(5 4)" fill="#f5e9d3" />
		<rect width="1" height="1" rx="0" ry="0" transform="translate(4 4)" fill="#f5e9d3" />
		<rect width="1" height="1" rx="0" ry="0" transform="translate(3 4)" fill="#f5e9d3" />
		<rect width="1" height="1" rx="0" ry="0" transform="translate(2 4)" fill="#f5e9d3" />
		<rect width="1" height="1" rx="0" ry="0" transform="translate(12 5)" fill="#f5e9d3" />
		<rect width="1" height="1" rx="0" ry="0" transform="translate(9 5)" fill="#f5e9d3" />
		<rect width="1" height="1" rx="0" ry="0" transform="translate(8 5)" fill="#f5e9d3" />
		<rect width="1" height="1" rx="0" ry="0" transform="translate(7 5)" fill="#f5e9d3" />
		<rect width="1" height="1" rx="0" ry="0" transform="translate(6 5)" fill="#f5e9d3" />
		<rect width="1" height="1" rx="0" ry="0" transform="translate(3 5)" fill="#f5e9d3" />
		<rect width="1" height="1" rx="0" ry="0" transform="translate(4 5)" fill="#f5e9d3" />
		<rect width="1" height="1" rx="0" ry="0" transform="translate(5 5)" fill="#f5e9d3" />
		<rect width="1" height="1" rx="0" ry="0" transform="translate(2 5)" fill="#f5e9d3" />
		<rect width="1" height="1" rx="0" ry="0" transform="translate(1 5)" fill="#f5e9d3" />
		<rect width="1" height="1" rx="0" ry="0" transform="translate(12 6)" fill="#f5e9d3" />
		<rect width="1" height="1" rx="0" ry="0" transform="translate(9 6)" fill="#f5e9d3" />
		<rect width="1" height="1" rx="0" ry="0" transform="translate(8 6)" fill="#f5e9d3" />
		<rect width="1" height="1" rx="0" ry="0" transform="translate(7 6)" fill="#f5e9d3" />
		<rect width="1" height="1" rx="0" ry="0" transform="translate(6 6)" fill="#f5e9d3" />
		<rect width="1" height="1" rx="0" ry="0" transform="translate(5 6)" fill="#f5e9d3" />
		<rect width="1" height="1" rx="0" ry="0" transform="translate(4 6)" fill="#f5e9d3" />
		<rect width="1" height="1" rx="0" ry="0" transform="translate(5 7)" fill="#f5e9d3" />
		<rect width="1" height="1" rx="0" ry="0" transform="translate(4 7)" fill="#f5e9d3" />
		<rect width="1" height="1" rx="0" ry="0" transform="translate(5 8)" fill="#f5e9d3" />
		<rect width="1" height="1" rx="0" ry="0" transform="translate(4 8)" fill="#f5e9d3" />
		<rect width="1" height="1" rx="0" ry="0" transform="translate(3 6)" fill="#f5e9d3" />
		<rect width="1" height="1" rx="0" ry="0" transform="translate(2 6)" fill="#f5e9d3" />
		<rect width="1" height="1" rx="0" ry="0" transform="translate(1 6)" fill="#f5e9d3" />
		<rect width="1" height="1" rx="0" ry="0" transform="translate(12 7)" fill="#f5e9d3" />
		<rect width="1" height="1" rx="0" ry="0" transform="translate(9 7)" fill="#f5e9d3" />
		<rect width="1" height="1" rx="0" ry="0" transform="translate(8 7)" fill="#f5e9d3" />
		<rect width="1" height="1" rx="0" ry="0" transform="translate(7 7)" fill="#f5e9d3" />
		<rect width="1" height="1" rx="0" ry="0" transform="translate(6 7)" fill="#f5e9d3" />
		<rect width="1" height="1" rx="0" ry="0" transform="translate(3 7)" fill="#f5e9d3" />
		<rect width="1" height="1" rx="0" ry="0" transform="translate(2 7)" fill="#f5e9d3" />
		<rect width="1" height="1" rx="0" ry="0" transform="translate(1 7)" fill="#f5e9d3" />
		<rect width="1" height="1" rx="0" ry="0" transform="translate(13 8)" fill="#f5e9d3" />
		<rect width="1" height="1" rx="0" ry="0" transform="translate(12 8)" fill="#f5e9d3" />
		<rect width="1" height="1" rx="0" ry="0" transform="translate(9 8)" fill="#f5e9d3" />
		<rect width="1" height="1" rx="0" ry="0" transform="translate(10 5)" fill="#f5e9d3" />
		<rect width="1" height="1" rx="0" ry="0" transform="translate(10 6)" fill="#f5e9d3" />
		<rect width="1" height="1" rx="0" ry="0" transform="translate(10 7)" fill="#f5e9d3" />
		<rect width="1" height="1" rx="0" ry="0" transform="translate(10 8)" fill="#f5e9d3" />
		<rect width="1" height="1" rx="0" ry="0" transform="translate(11 5)" fill="#f5e9d3" />
		<rect width="1" height="1" rx="0" ry="0" transform="translate(11 6)" fill="#f5e9d3" />
		<rect width="1" height="1" rx="0" ry="0" transform="translate(11 7)" fill="#f5e9d3" />
		<rect width="1" height="1" rx="0" ry="0" transform="translate(11 8)" fill="#f5e9d3" />
		<rect width="1" height="1" rx="0" ry="0" transform="translate(8 8)" fill="#f5e9d3" />
		<rect width="1" height="1" rx="0" ry="0" transform="translate(7 8)" fill="#f5e9d3" />
		<rect width="1" height="1" rx="0" ry="0" transform="translate(6 8)" fill="#f5e9d3" />
		<rect width="1" height="1" rx="0" ry="0" transform="translate(3 8)" fill="#f5e9d3" />
		<rect width="1" height="1" rx="0" ry="0" transform="translate(2 8)" fill="#f5e9d3" />
		<rect width="1" height="1" rx="0" ry="0" transform="translate(1 8)" fill="#f5e9d3" />
		<rect width="1" height="1" rx="0" ry="0" transform="translate(13 9)" fill="#f5e9d3" />
		<rect width="1" height="1" rx="0" ry="0" transform="translate(12 9)" fill="#f5e9d3" />
		<rect width="1" height="1" rx="0" ry="0" transform="translate(11 9)" fill="#f5e9d3" />
		<rect width="1" height="1" rx="0" ry="0" transform="translate(10 9)" fill="#f5e9d3" />
		<rect width="1" height="1" rx="0" ry="0" transform="translate(9 9)" fill="#f5e9d3" />
		<rect width="1" height="1" rx="0" ry="0" transform="translate(8 9)" fill="#f5e9d3" />
		<rect width="1" height="1" rx="0" ry="0" transform="translate(7 9)" fill="#f5e9d3" />
		<rect width="1" height="1" rx="0" ry="0" transform="translate(6 9)" fill="#f5e9d3" />
		<rect width="1" height="1" rx="0" ry="0" transform="translate(5 9)" fill="#f5e9d3" />
		<rect width="1" height="1" rx="0" ry="0" transform="translate(4 9)" fill="#f5e9d3" />
		<rect width="1" height="1" rx="0" ry="0" transform="translate(3 9)" fill="#f5e9d3" />
		<rect width="1" height="1" rx="0" ry="0" transform="translate(2 9)" fill="#f5e9d3" />
		<rect width="1" height="1" rx="0" ry="0" transform="translate(1 9)" fill="#f5e9d3" />
		<rect width="1" height="1" rx="0" ry="0" transform="translate(13 10)" fill="#f5e9d3" />
		<rect width="1" height="1" rx="0" ry="0" transform="translate(12 10)" fill="#f5e9d3" />
		<rect width="1" height="1" rx="0" ry="0" transform="translate(11 10)" fill="#f5e9d3" />
		<rect width="1" height="1" rx="0" ry="0" transform="translate(10 10)" fill="#f5e9d3" />
		<rect width="1" height="1" rx="0" ry="0" transform="translate(9 10)" fill="#f5e9d3" />
		<rect width="1" height="1" rx="0" ry="0" transform="translate(8 10)" fill="#f5e9d3" />
		<rect width="1" height="1" rx="0" ry="0" transform="translate(7 10)" fill="#f5e9d3" />
		<rect width="1" height="1" rx="0" ry="0" transform="translate(6 10)" fill="#f5e9d3" />
		<rect width="1" height="1" rx="0" ry="0" transform="translate(5 10)" fill="#f5e9d3" />
		<rect width="1" height="1" rx="0" ry="0" transform="translate(4 10)" fill="#f5e9d3" />
		<rect width="1" height="1" rx="0" ry="0" transform="translate(3 10)" fill="#f5e9d3" />
		<rect width="1" height="1" rx="0" ry="0" transform="translate(2 10)" fill="#f5e9d3" />
		<rect width="1" height="1" rx="0" ry="0" transform="translate(1 10)" fill="#f5e9d3" />
		<rect width="1" height="1" rx="0" ry="0" transform="translate(0 10)" fill="#f5e9d3" />
		<rect width="1" height="1" rx="0" ry="0" transform="translate(15 11)" fill="#f5e9d3" />
		<rect width="1" height="1" rx="0" ry="0" transform="translate(14 11)" fill="#f5e9d3" />
		<rect width="1" height="1" rx="0" ry="0" transform="translate(15 10)" fill="#f5e9d3" />
		<rect width="1" height="1" rx="0" ry="0" transform="translate(14 10)" fill="#f5e9d3" />
		<rect width="1" height="1" rx="0" ry="0" transform="translate(13 11)" fill="#f5e9d3" />
		<rect width="1" height="1" rx="0" ry="0" transform="translate(12 11)" fill="#f5e9d3" />
		<rect width="1" height="1" rx="0" ry="0" transform="translate(11 11)" fill="#f5e9d3" />
		<rect width="1" height="1" rx="0" ry="0" transform="translate(10 11)" fill="#f5e9d3" />
		<rect width="1" height="1" rx="0" ry="0" transform="translate(9 11)" fill="#f5e9d3" />
		<rect width="1" height="1" rx="0" ry="0" transform="translate(8 11)" fill="#f5e9d3" />
		<rect width="1" height="1" rx="0" ry="0" transform="translate(7 11)" fill="#f5e9d3" />
		<rect width="1" height="1" rx="0" ry="0" transform="translate(6 11)" fill="#f5e9d3" />
		<rect width="1" height="1" rx="0" ry="0" transform="translate(8 12)" fill="#f5e9d3" />
		<rect width="1" height="1" rx="0" ry="0" transform="translate(7 12)" fill="#f5e9d3" />
		<rect width="1" height="1" rx="0" ry="0" transform="translate(6 12)" fill="#f5e9d3" />
		<rect width="1" height="1" rx="0" ry="0" transform="translate(5 11)" fill="#f5e9d3" />
		<rect width="1" height="1" rx="0" ry="0" transform="translate(4 11)" fill="#f5e9d3" />
		<rect width="1" height="1" rx="0" ry="0" transform="translate(3 11)" fill="#f5e9d3" />
		<rect width="1" height="1" rx="0" ry="0" transform="translate(2 11)" fill="#f5e9d3" />
		<rect width="1" height="1" rx="0" ry="0" transform="translate(1 11)" fill="#f5e9d3" />
		<rect width="1" height="1" rx="0" ry="0" transform="translate(0 11)" fill="#f5e9d3" />
		<rect width="1" height="1" rx="0" ry="0" transform="translate(14 12)" fill="#f5e9d3" />
		<rect width="1" height="1" rx="0" ry="0" transform="translate(13 12)" fill="#f5e9d3" />
		<rect width="1" height="1" rx="0" ry="0" transform="translate(12 12)" fill="#f5e9d3" />
		<rect width="1" height="1" rx="0" ry="0" transform="translate(11 12)" fill="#f5e9d3" />
		<rect width="1" height="1" rx="0" ry="0" transform="translate(10 12)" fill="#f5e9d3" />
		<rect width="1" height="1" rx="0" ry="0" transform="translate(9 12)" fill="#f5e9d3" />
		<rect width="1" height="1" rx="0" ry="0" transform="translate(5 12)" fill="#f5e9d3" />
		<rect width="1" height="1" rx="0" ry="0" transform="translate(4 12)" fill="#f5e9d3" />
		<rect width="1" height="1" rx="0" ry="0" transform="translate(3 12)" fill="#f5e9d3" />
		<rect width="1" height="1" rx="0" ry="0" transform="translate(2 12)" fill="#f5e9d3" />
		<rect width="1" height="1" rx="0" ry="0" transform="translate(1 12)" fill="#f5e9d3" />
		<rect width="1" height="1" rx="0" ry="0" transform="translate(13 13)" fill="#f5e9d3" />
		<rect width="1" height="1" rx="0" ry="0" transform="translate(12 13)" fill="#f5e9d3" />
		<rect width="1" height="1" rx="0" ry="0" transform="translate(11 13)" fill="#f5e9d3" />
		<rect width="1" height="1" rx="0" ry="0" transform="translate(10 13)" fill="#f5e9d3" />
		<rect width="1" height="1" rx="0" ry="0" transform="translate(9 13)" fill="#f5e9d3" />
		<rect width="1" height="1" rx="0" ry="0" transform="translate(8 13)" fill="#f5e9d3" />
		<rect width="1" height="1" rx="0" ry="0" transform="translate(7 13)" fill="#f5e9d3" />
		<rect width="1" height="1" rx="0" ry="0" transform="translate(6 13)" fill="#f5e9d3" />
		<rect width="1" height="1" rx="0" ry="0" transform="translate(5 13)" fill="#f5e9d3" />
		<rect width="1" height="1" rx="0" ry="0" transform="translate(4 13)" fill="#f5e9d3" />
		<rect width="1" height="1" rx="0" ry="0" transform="translate(3 13)" fill="#f5e9d3" />
		<rect width="1" height="1" rx="0" ry="0" transform="translate(2 13)" fill="#f5e9d3" />
		<rect width="1" height="1" rx="0" ry="0" transform="translate(11 14)" fill="#f5e9d3" />
		<rect width="1" height="1" rx="0" ry="0" transform="translate(10 14)" fill="#f5e9d3" />
		<rect width="1" height="1" rx="0" ry="0" transform="translate(9 14)" fill="#f5e9d3" />
		<rect width="1" height="1" rx="0" ry="0" transform="translate(8 14)" fill="#f5e9d3" />
		<rect width="1" height="1" rx="0" ry="0" transform="translate(7 14)" fill="#f5e9d3" />
		<rect width="1" height="1" rx="0" ry="0" transform="translate(6 14)" fill="#f5e9d3" />
		<rect width="1" height="1" rx="0" ry="0" transform="translate(5 14)" fill="#f5e9d3" />
		<rect width="1" height="1" rx="0" ry="0" transform="translate(4 14)" fill="#f5e9d3" />
		<rect width="1" height="1" rx="0" ry="0" transform="translate(10 15)" fill="#f5e9d3" />
		<rect width="1" height="1" rx="0" ry="0" transform="translate(9 15)" fill="#f5e9d3" />
		<rect width="1" height="1" rx="0" ry="0" transform="translate(8 15)" fill="#f5e9d3" />
		<rect width="1" height="1" rx="0" ry="0" transform="translate(7 15)" fill="#f5e9d3" />
		<rect width="1" height="1" rx="0" ry="0" transform="translate(6 15)" fill="#f5e9d3" />
		<rect width="1" height="1" rx="0" ry="0" transform="translate(5 15)" fill="#f5e9d3" />
		<rect width="1" height="1" rx="0" ry="0" transform="translate(11 4)" fill="#f5e9d3" />
		<rect width="1" height="1" rx="0" ry="0" transform="translate(12 4)" fill="#f5e9d3" />
		<rect width="1" height="1" rx="0" ry="0" transform="translate(12 0)" />
		<rect width="1" height="1" rx="0" ry="0" transform="translate(13 0)" />
		<rect width="1" height="1" rx="0" ry="0" transform="translate(11 0)" />
		<rect width="1" height="1" rx="0" ry="0" transform="translate(10 0)" />
		<rect width="1" height="1" rx="0" ry="0" transform="translate(9 0)" />
		<rect width="1" height="1" rx="0" ry="0" transform="translate(8 0)" />
		<rect width="1" height="1" rx="0" ry="0" transform="translate(7 0)" />
		<rect width="1" height="1" rx="0" ry="0" transform="translate(6 0)" />
		<rect width="1" height="1" rx="0" ry="0" transform="translate(5 0)" />
		<rect width="1" height="1" rx="0" ry="0" transform="translate(4 0)" />
		<rect width="1" height="1" rx="0" ry="0" transform="translate(3 0)" />
		<rect width="1" height="1" rx="0" ry="0" transform="translate(2 0)" />
		<rect width="1" height="1" rx="0" ry="0" transform="translate(14 1)" />
		<rect width="1" height="1" rx="0" ry="0" transform="translate(13 1)" />
		<rect width="1" height="1" rx="0" ry="0" transform="translate(12 1)" />
		<rect width="1" height="1" rx="0" ry="0" transform="translate(11 1)" />
		<rect width="1" height="1" rx="0" ry="0" transform="translate(10 1)" />
		<rect width="1" height="1" rx="0" ry="0" transform="translate(9 1)" />
		<rect width="1" height="1" rx="0" ry="0" transform="translate(8 1)" />
		<rect width="1" height="1" rx="0" ry="0" transform="translate(7 1)" />
		<rect width="1" height="1" rx="0" ry="0" transform="translate(6 1)" />
		<rect width="1" height="1" rx="0" ry="0" transform="translate(5 1)" />
		<rect width="1" height="1" rx="0" ry="0" transform="translate(4 1)" />
		<rect width="1" height="1" rx="0" ry="0" transform="translate(3 1)" />
		<rect width="1" height="1" rx="0" ry="0" transform="translate(2 1)" />
		<rect width="1" height="1" rx="0" ry="0" transform="translate(1 1)" />
		<rect width="1" height="1" rx="0" ry="0" transform="translate(15 2)" />
		<rect width="1" height="1" rx="0" ry="0" transform="translate(14 2)" />
		<rect width="1" height="1" rx="0" ry="0" transform="translate(13 2)" />
		<rect width="1" height="1" rx="0" ry="0" transform="translate(12 2)" />
		<rect width="1" height="1" rx="0" ry="0" transform="translate(11 2)" />
		<rect width="1" height="1" rx="0" ry="0" transform="translate(10 2)" />
		<rect width="1" height="1" rx="0" ry="0" transform="translate(9 2)" />
		<rect width="1" height="1" rx="0" ry="0" transform="translate(8 2)" />
		<rect width="1" height="1" rx="0" ry="0" transform="translate(4 2)" />
		<rect width="1" height="1" rx="0" ry="0" transform="translate(5 2)" />
		<rect width="1" height="1" rx="0" ry="0" transform="translate(6 2)" />
		<rect width="1" height="1" rx="0" ry="0" transform="translate(7 2)" />
		<rect width="1" height="1" rx="0" ry="0" transform="translate(3 2)" />
		<rect width="1" height="1" rx="0" ry="0" transform="translate(2 2)" />
		<rect width="1" height="1" rx="0" ry="0" transform="translate(1 2)" />
		<rect width="1" height="1" rx="0" ry="0" transform="translate(0 2)" />
		<rect width="1" height="1" rx="0" ry="0" transform="translate(15 3)" />
		<rect width="1" height="1" rx="0" ry="0" transform="translate(14 3)" />
		<rect width="1" height="1" rx="0" ry="0" transform="translate(13 3)" />
		<rect width="1" height="1" rx="0" ry="0" transform="translate(12 3)" />
		<rect width="1" height="1" rx="0" ry="0" transform="translate(1 3)" />
		<rect width="1" height="1" rx="0" ry="0" transform="translate(0 3)" />
		<rect width="1" height="1" rx="0" ry="0" transform="translate(15 4)" />
		<rect width="1" height="1" rx="0" ry="0" transform="translate(14 4)" />
		<rect width="1" height="1" rx="0" ry="0" transform="translate(13 4)" />
		<rect width="1" height="1" rx="0" ry="0" transform="translate(1 4)" />
		<rect width="1" height="1" rx="0" ry="0" transform="translate(2 3)" />
		<rect width="1" height="1" rx="0" ry="0" transform="translate(2 4)" />
		<rect width="1" height="1" rx="0" ry="0" transform="translate(0 4)" />
		<rect width="1" height="1" rx="0" ry="0" transform="translate(15 5)" />
		<rect width="1" height="1" rx="0" ry="0" transform="translate(14 5)" />
		<rect width="1" height="1" rx="0" ry="0" transform="translate(13 5)" />
		<rect width="1" height="1" rx="0" ry="0" transform="translate(12 5)" />
		<rect width="1" height="1" rx="0" ry="0" transform="translate(12 6)" />
		<rect width="1" height="1" rx="0" ry="0" transform="translate(12 7)" />
		<rect width="1" height="1" rx="0" ry="0" transform="translate(0 5)" />
		<rect width="1" height="1" rx="0" ry="0" transform="translate(15 6)" />
		<rect width="1" height="1" rx="0" ry="0" transform="translate(14 6)" />
		<rect width="1" height="1" rx="0" ry="0" transform="translate(13 6)" />
		<rect width="1" height="1" rx="0" ry="0" transform="translate(0 6)" />
		<rect width="1" height="1" rx="0" ry="0" transform="translate(15 7)" />
		<rect width="1" height="1" rx="0" ry="0" transform="translate(14 7)" />
		<rect width="1" height="1" rx="0" ry="0" transform="translate(13 7)" />
		<rect width="1" height="1" rx="0" ry="0" transform="translate(13 8)" />
		<rect width="1" height="1" rx="0" ry="0" transform="translate(0 7)" />
		<rect width="1" height="1" rx="0" ry="0" transform="translate(1 5)" />
		<rect width="1" height="1" rx="0" ry="0" transform="translate(1 6)" />
		<rect width="1" height="1" rx="0" ry="0" transform="translate(1 7)" />
		<rect width="1" height="1" rx="0" ry="0" transform="translate(1 8)" />
		<rect width="1" height="1" rx="0" ry="0" transform="translate(15 8)" />
		<rect width="1" height="1" rx="0" ry="0" transform="translate(14 8)" />
		<rect width="1" height="1" rx="0" ry="0" transform="translate(0 8)" />
		<rect width="1" height="1" rx="0" ry="0" transform="translate(15 9)" />
		<rect width="1" height="1" rx="0" ry="0" transform="translate(15 10)" />
		<rect width="1" height="1" rx="0" ry="0" transform="translate(14 9)" />
		<rect width="1" height="1" rx="0" ry="0" transform="translate(0 9)" />
		<rect width="1" height="1" rx="0" ry="0" transform="translate(0 12)" />
		<rect width="1" height="1" rx="0" ry="0" transform="translate(15 12)" />
		<rect width="1" height="1" rx="0" ry="0" transform="translate(14 13)" />
		<rect width="1" height="1" rx="0" ry="0" transform="translate(15 13)" />
		<rect width="1" height="1" rx="0" ry="0" transform="translate(1 13)" />
		<rect width="1" height="1" rx="0" ry="0" transform="translate(0 13)" />
		<rect width="1" height="1" rx="0" ry="0" transform="translate(14 14)" />
		<rect width="1" height="1" rx="0" ry="0" transform="translate(13 14)" />
		<rect width="1" height="1" rx="0" ry="0" transform="translate(12 14)" />
		<rect width="1" height="1" rx="0" ry="0" transform="translate(3 14)" fill="#303030" />
		<rect width="1" height="1" rx="0" ry="0" transform="translate(2 14)" />
		<rect width="1" height="1" rx="0" ry="0" transform="translate(1 14)" />
		<rect width="1" height="1" rx="0" ry="0" transform="translate(12 14)" fill="#f5e9d3" />
		<rect width="1" height="1" rx="0" ry="0" transform="translate(3 14)" fill="#f5e9d3" />
		<rect width="1" height="1" rx="0" ry="0" transform="translate(3 5)" />
		<rect width="1" height="1" rx="0" ry="0" transform="translate(4 5)" />
		<rect width="1" height="1" rx="0" ry="0" transform="translate(9 5)" />
		<rect width="1" height="1" rx="0" ry="0" transform="translate(10 5)" />
		<rect width="1" height="1" rx="0" ry="0" transform="translate(12 4)" />
		<rect width="1" height="1" rx="0" ry="0" transform="translate(11 3)" />
		<rect width="1" height="1" rx="0" ry="0" transform="translate(11 5)" />
		<rect width="1" height="1" rx="0" ry="0" transform="translate(11 6)" />
		<rect width="1" height="1" rx="0" ry="0" transform="translate(12 8)" />
		<rect width="1" height="1" rx="0" ry="0" transform="translate(13 9)" />
		<rect width="1" height="1" rx="0" ry="0" transform="translate(13 10)" />
		<rect width="1" height="1" rx="0" ry="0" transform="translate(14 10)" />
		<rect width="1" height="1" rx="0" ry="0" transform="translate(11 7)" />
		<rect width="1" height="1" rx="0" ry="0" transform="translate(11 4)" />
		<rect width="1" height="1" rx="0" ry="0" transform="translate(3 6)" fill="#fca192" />
		<rect width="1" height="1" rx="0" ry="0" transform="translate(4 6)" fill="#fca192" />
	</g>
	<g id="blinkMotion" transform="translate(7,7.5)">
		<g transform="translate(-7,-7.5)">
			<rect width="1" height="1" rx="0" ry="0" transform="translate(3 7)" />
			<rect width="1" height="1" rx="0" ry="0" transform="translate(4 7)" fill="#fff" />
			<rect width="1" height="1" rx="0" ry="0" transform="translate(10 7)" fill="#fff" />
			<rect width="1" height="1" rx="0" ry="0" transform="translate(9 7)" />
		</g>
	</g>
	<g>
		<rect width="1" height="1" rx="0" ry="0" transform="translate(8 12)" fill="#e2a688" />
		<rect width="1" height="1" rx="0" ry="0" transform="translate(7 12)" fill="#e2a688" />
		<rect width="1" height="1" rx="0" ry="0" transform="translate(6 12)" fill="#e2a688" />
		<rect width="1" height="1" rx="0" ry="0" transform="translate(9 8)" />
		<rect width="1" height="1" rx="0" ry="0" transform="translate(10 8)" />
		<rect width="1" height="1" rx="0" ry="0" transform="translate(4 8)" />
		<rect width="1" height="1" rx="0" ry="0" transform="translate(3 8)" />
	</g>
</svg>