<svg id="sw-js-blob-svg" viewBox="0 0 100 100"
  xmlns="http://www.w3.org/2000/svg">
  <defs>
    <linearGradient id="sw-gradient" x1="0" x2="1" y1="1" y2="0">
      <stop id="stop1" stop-color="rgba(0, 0, 0, 1)" offset="0%"></stop>
      <stop id="stop2" stop-color="rgba(251, 168, 31, 1)" offset="100%"></stop>
    </linearGradient>
  </defs>
  <path fill="rgba(0, 0, 0, 1)"
    d="M9.6,-18.5C12.8,-13,15.7,-10.8,22.1,-7.1C28.5,-3.4,38.3,1.8,37.9,5.6C37.6,9.4,27.1,11.9,20.1,14.4C13.2,16.8,9.8,19.3,6.3,19.3C2.9,19.3,-0.6,16.7,-7.3,17.9C-14,19.2,-23.9,24.2,-28.2,22.6C-32.6,20.9,-31.3,12.6,-32.2,4.8C-33.1,-3,-36,-10.4,-31.8,-12.5C-27.7,-14.7,-16.6,-11.6,-10.1,-15.6C-3.6,-19.6,-1.8,-30.6,0.7,-31.7C3.3,-32.9,6.5,-24.1,9.6,-18.5Z"
    width="100%" height="100%" transform="translate(50 50)" stroke-width="0" style="transition: all 0.3s ease 0s;"
    stroke="url(#sw-gradient)"></path>
</svg>