<svg id="sw-js-blob-svg" viewBox="0 0 100 100" xmlns="http://www.w3.org/2000/svg">
  <defs>
    <linearGradient id="sw-gradient" x1="0" x2="1" y1="1" y2="0">
      <stop id="stop1" stop-color="rgba(248, 117, 55, 1)" offset="0%"></stop>
      <stop id="stop2" stop-color="rgba(251, 168, 31, 1)" offset="100%"></stop>
    </linearGradient>
  </defs>
  <path fill="rgba(248, 117, 55, 1)"
    d="M10,-19.3C12.6,-14,13.8,-10.4,19.4,-6.4C25.1,-2.4,35.1,2,35.7,5.9C36.4,9.8,27.6,13,20.9,14.9C14.3,16.7,9.7,17.1,4.5,21.4C-0.7,25.7,-6.5,34,-12.2,35.2C-17.9,36.4,-23.3,30.7,-27.3,24.5C-31.3,18.4,-33.9,11.8,-33.5,5.6C-33.1,-0.5,-29.8,-6.3,-27.3,-12.8C-24.9,-19.3,-23.3,-26.5,-18.8,-30.9C-14.4,-35.2,-7.2,-36.8,-1.7,-34.1C3.8,-31.4,7.5,-24.5,10,-19.3Z"
    width="100%" height="100%" transform="translate(50 50)" stroke-width="0" style="transition: all 0.3s ease 0s;"
    stroke="url(#sw-gradient)"></path>
</svg>