<?xml version="1.0" encoding="UTF-8"?>
<svg viewBox="0 0 62 52" version="1.1" xmlns="http://www.w3.org/2000/svg" xmlns:xlink="http://www.w3.org/1999/xlink">
    <title>logo</title>
    <g id="Page-1" stroke="none" stroke-width="1" fill="none" fill-rule="evenodd">
        <g id="logo-g" transform="translate(-689.000000, -16.000000)" fill="#000" fill-rule="nonzero">
            <g id="logo" transform="translate(689.701031, 16.000000)">
                <path
                    d="M30.5533058,0 L61.1066116,51.8649871 L57.3915875,51.8652341 C57.3725563,51.8655487 57.3535016,51.8656092 57.3344282,51.8654139 L3.97049975,51.8657565 C3.7863221,51.8894603 3.60751251,51.8879031 3.43610717,51.8644416 L0,51.8649871 L1.75063053,48.8923426 C1.81425715,48.7457618 1.89733877,48.6028474 2.00142271,48.4661499 L30.5533058,0 Z M28.408,41.228 L13.946,47.582 L28.408,47.582 L28.408,41.228 Z M32.697,41.228 L32.697,47.582 L47.159,47.582 L32.697,41.228 Z M32.697,12.086 L32.697,36.55 L52.14,45.091 L32.697,12.086 Z M28.408,32.766 L17.8854089,41.173403 L28.408,36.55 L28.408,32.766 Z M28.408,12.087 L11.5,40.789 L28.408,27.282 L28.408,12.087 Z"
                    id="Combined-Shape"></path>
            </g>
        </g>
    </g>
</svg>