<?xml version="1.0" encoding="UTF-8"?><svg id="Layer_1" xmlns="http://www.w3.org/2000/svg" viewBox="0 0 382.34 382.35"><defs><style>.cls-1{font-family:Arial-Black, 'Arial Black';font-size:48px;}</style></defs><text class="cls-1" transform="translate(148.5 46.29) rotate(-9.76)"><tspan x="0" y="0">T</tspan></text><text class="cls-1" transform="translate(179.9 40.61) rotate(2.27)"><tspan x="0" y="0">E</tspan></text><text class="cls-1" transform="translate(211.72 41.4) rotate(14.86)"><tspan x="0" y="0">A</tspan></text><text class="cls-1" transform="translate(245.16 49.36) rotate(29.48)"><tspan x="0" y="0">M</tspan></text><text class="cls-1" transform="translate(281.66 71.26) rotate(40.12)"><tspan x="0" y="0"> </tspan></text><text class="cls-1" transform="translate(292.84 79.1) rotate(49.77)"><tspan x="0" y="0">O</tspan></text><text class="cls-1" transform="translate(316.8 107.37) rotate(62.84)"><tspan x="0" y="0">P</tspan></text><text class="cls-1" transform="translate(331.63 135.6) rotate(75.04)"><tspan x="0" y="0">E</tspan></text><text class="cls-1" transform="translate(340.44 166.18) rotate(88.12)"><tspan x="0" y="0">N</tspan></text><text class="cls-1" transform="translate(341.55 203.26) rotate(100.62)"><tspan x="0" y="0">F</tspan></text><text class="cls-1" transform="translate(336.41 232.15) rotate(111.86)"><tspan x="0" y="0">L</tspan></text><text class="cls-1" transform="translate(326.57 258.83) rotate(124.19)"><tspan x="0" y="0">O</tspan></text><text class="cls-1" transform="translate(306.08 289.65) rotate(138.17)"><tspan x="0" y="0">O</tspan></text><text class="cls-1" transform="translate(278.62 314.49) rotate(151.7)"><tspan x="0" y="0">R</tspan></text><text class="cls-1" transform="translate(247.64 330.42) rotate(160.98)"><tspan x="0" y="0"> </tspan></text><text class="cls-1" transform="translate(235.02 335.72) rotate(169.78)"><tspan x="0" y="0">T</tspan></text><text class="cls-1" transform="translate(203.7 341.65) rotate(-178.2)"><tspan x="0" y="0">E</tspan></text><text class="cls-1" transform="translate(171.83 341.11) rotate(-165.59)"><tspan x="0" y="0">A</tspan></text><text class="cls-1" transform="translate(138.35 333.43) rotate(-150.99)"><tspan x="0" y="0">M</tspan></text><text class="cls-1" transform="translate(101.67 311.82) rotate(-140.34)"><tspan x="0" y="0"> </tspan></text><text class="cls-1" transform="translate(90.42 304.07) rotate(-130.69)"><tspan x="0" y="0">O</tspan></text><text class="cls-1" transform="translate(66.22 275.98) rotate(-117.62)"><tspan x="0" y="0">P</tspan></text><text class="cls-1" transform="translate(51.18 247.89) rotate(-105.43)"><tspan x="0" y="0">E</tspan></text><text class="cls-1" transform="translate(42.12 217.37) rotate(-92.34)"><tspan x="0" y="0">N</tspan></text><text class="cls-1" transform="translate(40.71 180.29) rotate(-79.84)"><tspan x="0" y="0">F</tspan></text><text class="cls-1" transform="translate(45.63 151.37) rotate(-68.6)"><tspan x="0" y="0">L</tspan></text><text class="cls-1" transform="translate(55.25 124.59) rotate(-56.26)"><tspan x="0" y="0">O</tspan></text><text class="cls-1" transform="translate(75.49 93.63) rotate(-42.29)"><tspan x="0" y="0">O</tspan></text><text class="cls-1" transform="translate(102.76 68.56) rotate(-28.75)"><tspan x="0" y="0">R</tspan></text></svg>